<mxfile host="app.diagrams.net" modified="2024-07-18T07:18:38.180Z" agent="Mozilla/5.0 (Windows NT 10.0; Win64; x64) AppleWebKit/537.36 (KHTML, like Gecko) Chrome/126.0.0.0 Safari/537.36" version="24.6.5" etag="EcWvqiY9QKXVVPLHU_4T" type="github">
  <diagram name="第 1 页" id="9YeYYYgwCdbxo6xKHen1">
    <mxGraphModel>
      <root>
        <mxCell id="0" />
        <mxCell id="1" parent="0" />
      </root>
    </mxGraphModel>
  </diagram>
</mxfile>
